 <svg  version="1.0" xmlns="http://www.w3.org/2000/svg"  width="300.000000pt" height="231.000000pt" viewBox="0 0 300.000000 231.000000"  preserveAspectRatio="xMidYMid meet">  <g transform="translate(0.000000,231.000000) scale(0.100000,-0.100000)" fill="#ffff55" stroke="none"> <path d="M1190 2181 c0 -72 3 -131 8 -131 4 0 6 20 4 45 -3 33 1 52 17 74 23 31 27 46 11 36 -6 -4 -10 7 -10 26 0 28 3 31 23 25 12 -3 25 -6 30 -6 14 0 7 -20 -8 -20 -8 0 -15 -7 -15 -15 0 -14 3 -14 31 0 16 9 48 17 69 18 22 1 38 2 37 3 -1 1 -38 16 -82 32 -44 16 -88 33 -97 37 -17 7 -18 -3 -18 -124z"/> <path d="M1480 2191 c0 -6 9 -11 19 -11 11 0 27 -7 35 -16 9 -8 16 -13 16 -9 0 3 10 -1 23 -9 13 -9 28 -12 35 -7 9 5 -4 15 -40 28 -29 12 -61 24 -70 28 -11 4 -18 3 -18 -4z"/> <path d="M1270 1961 c0 -182 -2 -200 -17 -204 -14 -4 -12 -5 5 -6 l22 -1 0 205 c0 113 -2 205 -5 205 -3 0 -5 -90 -5 -199z"/> <path d="M1633 2128 c2 -7 14 -12 25 -10 15 2 22 -2 22 -12 0 -9 4 -16 10 -16 5 0 11 -37 13 -82 l3 -83 2 93 2 93 -35 15 c-42 17 -48 17 -42 2z"/> <path d="M1371 2126 c9 -8 232 -86 236 -83 2 2 -48 23 -110 46 -105 37 -137 47 -126 37z"/> <path d="M1623 1970 c0 -41 2 -58 4 -37 2 20 2 54 0 75 -2 20 -4 3 -4 -38z"/> <path d="M990 1971 c-80 -25 -152 -49 -161 -53 -14 -5 -16 -29 -18 -154 -1 -81 -4 -152 -7 -156 -10 -16 16 -8 61 19 l45 28 0 97 0 97 33 6 c23 5 33 12 34 27 1 14 -3 18 -13 14 -9 -3 -19 -6 -23 -6 -5 0 -19 -10 -33 -23 -21 -20 -26 -35 -31 -106 -7 -87 -12 -105 -28 -95 -11 6 -9 208 1 223 9 12 90 32 108 27 11 -4 30 6 51 27 19 17 62 42 95 54 109 39 35 22 -114 -26z"/> <path d="M1190 1828 c0 -72 3 -88 15 -88 17 0 21 35 5 45 -6 4 -7 12 -3 18 9 15 4 77 -8 97 -5 9 -9 -18 -9 -72z"/> <path d="M1712 1733 c-2 -73 -4 -82 -19 -77 -16 5 -16 4 0 -6 10 -7 21 -10 23 -7 3 2 3 42 1 88 l-3 84 -2 -82z"/> <path d="M1045 1675 l-30 -14 28 -1 c15 0 27 5 27 11 0 6 12 8 33 5 24 -5 27 -4 12 3 -26 13 -34 12 -70 -4z"/> <path d="M961 1641 c-28 -15 -31 -19 -16 -25 10 -3 20 -4 23 -1 3 3 -1 5 -9 5 -8 1 -2 8 14 16 15 8 33 12 39 8 7 -4 8 -3 4 4 -9 15 -14 15 -55 -7z"/> <path d="M1591 1656 c10 -9 129 -66 129 -61 0 5 -116 65 -126 65 -4 0 -5 -2 -3 -4z"/> <path d="M1252 1438 l3 -203 2 197 3 197 58 4 57 3 -62 2 -63 2 2 -202z"/> <path d="M1475 1610 c39 -10 72 -16 73 -15 6 6 -100 35 -122 34 -12 0 11 -8 49 -19z"/> <path d="M828 1558 c-106 -81 -185 -176 -242 -292 -44 -89 -71 -168 -46 -136 9 13 10 12 6 -5 -3 -11 -8 -33 -11 -50 -4 -16 -11 -40 -17 -52 -8 -16 -7 -27 6 -44 16 -23 16 -23 16 17 0 22 6 63 13 92 9 31 10 53 4 55 -15 5 27 78 66 116 20 18 40 30 46 26 6 -3 10 -3 9 2 -3 8 8 21 90 116 24 27 41 52 38 55 -10 10 -50 -18 -76 -53 -24 -33 -40 -44 -40 -27 0 14 139 152 153 152 9 0 14 -15 16 -44 2 -40 0 -44 -18 -39 -19 5 -21 -2 -12 -74 0 -7 12 -13 25 -13 27 0 44 16 25 22 -8 3 -11 30 -10 82 2 79 14 122 41 143 8 7 12 13 8 13 -4 0 -44 -28 -90 -62z"/> <path d="M990 1576 c-14 -8 -29 -12 -35 -9 -5 4 -7 3 -3 -2 4 -4 -1 -15 -10 -24 -10 -9 -13 -13 -7 -9 5 3 30 18 55 32 25 14 41 26 35 26 -5 -1 -21 -7 -35 -14z"/> <path d="M1590 1571 l35 -19 5 -139 6 -138 2 138 2 137 -32 20 c-18 11 -37 20 -43 20 -5 -1 6 -9 25 -19z"/> <path d="M1730 1587 c0 -3 27 -27 61 -53 74 -57 158 -157 201 -240 18 -35 34 -61 36 -59 6 6 -40 89 -83 150 -24 33 -65 81 -92 106 -52 50 -123 105 -123 96z"/> <path d="M1710 1501 c0 -6 4 -11 9 -11 18 0 118 -100 156 -155 42 -61 56 -73 28 -24 -37 65 -193 218 -193 190z"/> <path d="M1712 1274 c-2 -209 -2 -211 21 -232 13 -12 26 -22 30 -22 4 0 6 21 5 48 l-1 47 -6 -44 c-6 -42 -7 -43 -23 -24 -15 17 -18 47 -21 229 l-2 209 -3 -211z"/> <path d="M1164 1335 c0 -71 1 -99 3 -62 2 37 2 96 0 130 -2 34 -3 4 -3 -68z"/> <path d="M838 1310 c2 -14 4 -45 3 -70 -2 -43 -6 -49 -121 -165 -79 -80 -117 -124 -112 -133 8 -11 111 87 184 176 15 17 31 32 36 32 16 0 23 30 27 110 3 45 1 69 -4 61 -8 -12 -10 -12 -14 0 -2 8 -2 3 1 -11z"/> <path d="M643 1248 c-11 -13 -25 -32 -31 -43 -27 -55 -62 -263 -42 -250 4 3 11 -1 14 -7 4 -9 5 -8 4 2 -1 8 2 31 5 50 4 19 9 51 11 70 2 19 18 72 34 118 16 45 28 82 27 82 -1 0 -11 -10 -22 -22z"/> <path d="M1638 1185 c-1 -30 0 -55 5 -55 4 0 7 25 7 55 0 71 -7 71 -12 0z"/> <path d="M983 1173 c21 -24 137 -117 137 -109 0 2 -35 33 -77 67 -43 35 -70 53 -60 42z"/> <path d="M1535 1128 l-50 -53 50 48 c49 45 51 46 70 30 19 -18 19 -18 1 5 -11 12 -20 22 -20 22 -1 0 -24 -24 -51 -52z"/> <path d="M1172 1096 l-2 -69 -22 19 -23 19 19 -23 c28 -32 38 -15 33 59 l-3 64 -2 -69z"/> <path d="M1412 1078 c-1 -37 2 -69 6 -72 5 -3 24 11 43 32 l34 37 -37 -34 -37 -34 -4 69 -3 69 -2 -67z"/> <path d="M2066 1105 c12 -81 16 -100 20 -104 9 -10 3 48 -11 94 -13 45 -14 46 -9 10z"/> <path d="M930 1120 c0 -6 -5 -8 -12 -4 -9 5 -9 3 1 -9 7 -9 17 -15 21 -12 4 3 10 -1 13 -8 2 -6 32 -34 66 -60 42 -33 61 -43 61 -33 0 9 -6 15 -12 14 -7 -2 -12 3 -10 10 1 8 -2 11 -8 7 -5 -3 -10 -1 -10 4 0 6 -6 11 -14 11 -8 0 -17 7 -20 16 -3 8 -10 12 -16 9 -5 -3 -8 0 -5 7 2 7 -9 23 -26 36 -16 13 -29 18 -29 12z"/> <path d="M1261 995 c-1 -77 -5 -134 -8 -127 -2 6 -10 12 -16 12 -18 0 -87 52 -81 61 3 5 2 9 -3 8 -22 -4 -34 2 -27 14 4 6 4 9 -1 5 -4 -4 -14 -3 -22 3 -7 6 -13 9 -13 6 0 -9 171 -139 176 -134 2 2 3 69 1 148 l-3 144 -3 -140z"/> <path d="M1343 1065 c0 -38 2 -53 4 -32 2 20 2 52 0 70 -2 17 -4 1 -4 -38z"/> <path d="M837 1088 c-17 -16 -26 -32 -21 -39 5 -8 3 -9 -5 -5 -8 5 -14 0 -18 -13 -3 -11 -9 -19 -13 -16 -4 3 -50 -40 -103 -95 -77 -81 -94 -105 -89 -122 4 -16 7 -18 10 -8 3 8 71 85 153 170 87 92 140 156 131 156 -10 0 -30 -13 -45 -28z"/> <path d="M1944 995 c0 -71 1 -99 3 -62 2 37 2 96 0 130 -2 34 -3 4 -3 -68z"/> <path d="M1571 1053 c-50 -59 -54 -68 -13 -25 l42 44 78 -70 c42 -39 90 -84 106 -101 17 -17 33 -31 38 -31 4 0 8 43 8 95 0 94 0 95 25 95 23 0 24 -3 28 -67 l3 -68 2 73 2 72 -35 0 -35 0 -1 -97 c0 -54 -3 -91 -6 -83 -2 8 -7 22 -9 30 -4 13 -6 13 -14 0 -7 -12 -11 -10 -18 10 -5 14 -12 24 -16 22 -4 -2 -39 25 -77 60 -39 35 -74 64 -78 66 -4 1 -18 -10 -30 -25z"/> <path d="M2012 918 c-1 -48 -6 -98 -12 -113 -6 -16 -6 -24 0 -20 15 9 21 64 18 145 l-4 75 -2 -87z"/> <path d="M505 895 c7 -135 29 -219 85 -332 40 -81 67 -120 132 -188 44 -47 83 -84 85 -82 2 3 18 -9 35 -25 17 -16 37 -27 45 -24 8 3 12 2 9 -3 -6 -9 73 -56 81 -47 3 3 12 -2 21 -10 8 -9 23 -13 34 -11 10 3 15 1 12 -4 -3 -6 6 -7 23 -4 23 5 25 4 13 -5 -13 -10 -13 -11 2 -6 10 3 20 1 24 -5 3 -6 12 -8 20 -5 7 3 16 0 20 -6 4 -6 24 -8 53 -4 32 4 41 3 31 -4 -11 -7 5 -10 53 -10 82 0 207 19 207 32 0 5 5 6 10 3 15 -9 110 26 103 38 -3 6 -1 7 5 3 12 -7 62 13 62 26 0 5 4 7 10 3 5 -3 18 3 30 15 11 11 20 18 20 15 0 -3 9 -1 20 5 11 6 17 16 14 22 -4 7 -2 8 5 4 7 -5 37 17 76 56 49 48 63 67 56 78 -6 8 -13 11 -18 7 -4 -5 -1 -12 7 -17 14 -9 7 -14 -13 -11 -4 1 -24 -15 -45 -35 -139 -135 -364 -220 -563 -212 -48 1 -85 0 -82 -5 2 -4 -6 -7 -19 -6 -13 0 -17 3 -10 6 18 7 5 23 -19 23 -22 0 -118 29 -134 40 -5 4 -24 12 -42 18 -32 11 -213 138 -213 150 0 4 -16 24 -35 44 -19 20 -35 40 -35 45 0 5 -9 15 -20 23 -11 8 -20 18 -20 23 0 5 -14 39 -31 75 -33 73 -61 168 -57 198 1 10 -5 44 -14 74 -9 30 -22 71 -27 90 -9 28 -10 18 -6 -55z"/> <path d="M1352 849 l-2 -96 62 -49 c35 -27 64 -48 66 -46 2 2 12 -8 23 -22 11 -15 26 -26 33 -26 10 0 52 58 44 61 -20 8 -48 4 -48 -8 0 -10 -9 -7 -32 10 -18 14 -54 35 -80 47 -35 16 -45 26 -41 38 4 15 3 15 -6 2 -7 -11 -11 11 -14 85 l-3 100 -2 -96z"/> <path d="M1882 881 c-2 -38 4 -52 39 -98 23 -29 47 -56 52 -60 6 -4 -1 9 -16 29 -15 19 -27 40 -27 47 0 7 -5 9 -12 5 -8 -5 -9 -2 -5 9 4 10 2 16 -6 14 -7 -1 -14 17 -18 48 l-6 50 -1 -44z"/> <path d="M1431 838 c0 -59 2 -65 32 -87 l32 -25 -28 31 c-26 28 -29 37 -25 87 1 31 0 56 -4 56 -5 0 -8 -28 -7 -62z"/> <path d="M2074 793 c-2 -57 -2 -57 8 -20 6 23 7 47 2 58 -7 14 -9 3 -10 -38z"/> <path d="M565 775 c4 -11 14 -42 22 -70 30 -99 77 -174 193 -303 100 -112 223 -183 315 -184 29 0 35 -2 20 -8 -38 -14 34 -20 130 -11 l90 9 -87 -1 c-47 -1 -84 2 -81 6 3 5 -1 7 -8 6 -8 -1 -21 0 -29 4 -50 19 -83 25 -97 20 -9 -4 -14 -2 -10 3 3 6 -17 22 -46 36 -29 14 -73 41 -99 61 -25 19 -49 34 -52 31 -3 -2 -4 -1 -1 2 2 4 -21 36 -52 72 -80 95 -121 160 -148 237 -13 37 -33 77 -46 89 -21 20 -22 20 -14 1z"/> <path d="M2039 719 c-7 -13 -12 -29 -11 -36 3 -15 -52 -137 -79 -175 -11 -14 -19 -28 -19 -31 0 -8 28 -2 37 8 4 4 2 5 -4 1 -7 -4 -13 -2 -13 3 0 6 7 11 15 11 9 0 12 6 8 17 -4 11 -3 14 5 9 13 -8 41 43 34 63 -2 8 0 11 6 7 15 -9 57 123 44 136 -7 7 -14 3 -23 -13z"/> <path d="M1983 700 c2 -8 -3 -21 -10 -29 -8 -7 -12 -20 -9 -27 3 -8 1 -14 -4 -14 -5 0 -6 -7 -3 -17 4 -10 2 -14 -4 -10 -13 8 -56 -60 -48 -74 9 -14 25 -11 19 5 -3 7 2 16 10 19 8 3 27 32 41 63 21 46 24 62 16 78 -6 12 -10 14 -8 6z"/> <path d="M2019 539 c-8 -17 -8 -20 1 -14 8 5 11 3 8 -6 -3 -8 -10 -14 -16 -14 -7 0 -13 -4 -14 -10 0 -5 -7 -14 -15 -20 -14 -11 -27 -55 -15 -55 4 0 20 20 35 44 19 30 34 44 48 43 11 -1 18 -6 15 -12 -6 -15 60 -59 75 -49 8 4 9 3 5 -4 -4 -7 8 -21 28 -34 24 -16 36 -31 36 -47 0 -20 4 -23 30 -19 17 3 30 2 30 -2 0 -4 12 -12 26 -19 23 -10 25 -9 22 11 -3 21 -8 23 -50 21 -47 -3 -48 -2 -48 26 0 16 -7 34 -15 41 -8 7 -15 10 -15 7 0 -3 -12 5 -27 19 -14 13 -28 22 -30 20 -7 -6 -63 48 -63 61 0 7 -9 17 -20 23 -16 8 -21 6 -31 -11z"/> <path d="M1878 508 c-8 -13 -17 -27 -19 -32 -7 -17 -133 -131 -166 -151 -18 -10 -30 -22 -27 -27 3 -4 -2 -5 -10 -2 -8 3 -19 -3 -26 -15 -6 -12 -16 -21 -23 -21 -7 0 -6 4 3 10 21 13 6 12 -25 -2 -19 -9 -22 -14 -13 -21 9 -6 6 -7 -9 -4 -12 3 -52 -4 -90 -15 -37 -11 -84 -20 -103 -20 l-35 0 30 -8 c22 -6 8 -8 -55 -10 -71 -2 -79 -3 -50 -11 32 -8 140 1 210 17 23 6 24 7 5 14 -14 5 -5 8 27 7 80 0 283 114 270 152 -3 10 0 12 13 7 12 -4 16 -2 12 8 -3 8 1 13 10 12 21 -2 109 112 96 125 -7 7 -15 3 -25 -13z"/> <path d="M1921 396 c-10 -12 -8 -17 10 -26 17 -9 23 -9 29 1 19 30 -16 53 -39 25z"/> <path d="M2026 391 c-3 -5 -16 -7 -29 -4 -22 5 -22 5 -2 -11 20 -17 20 -17 -5 -11 -18 5 -14 0 15 -18 22 -14 43 -23 47 -21 5 3 8 1 8 -4 0 -5 12 -17 26 -27 18 -12 24 -13 19 -4 -4 8 3 3 15 -11 12 -14 19 -18 15 -10 -4 8 2 6 12 -5 10 -12 27 -27 38 -35 18 -13 19 -13 10 0 -5 9 -1 6 10 -6 24 -25 111 -81 100 -64 -6 9 -2 9 14 1 11 -7 21 -14 21 -17 0 -3 -6 -2 -12 1 -7 4 -2 -2 11 -13 14 -11 30 -18 37 -15 7 3 21 0 31 -7 16 -9 15 -10 -7 -5 -18 4 -21 3 -10 -3 29 -18 84 -22 104 -7 26 20 15 105 -15 105 -10 0 -19 -4 -19 -10 0 -5 5 -10 10 -10 6 0 10 -7 10 -15 0 -8 -6 -15 -12 -15 -9 0 -9 -3 -2 -8 17 -11 24 -41 12 -48 -6 -4 -8 -3 -5 3 4 6 0 14 -9 17 -10 4 -13 2 -9 -7 4 -6 0 -4 -8 5 -8 10 -17 15 -20 12 -3 -3 -11 -3 -17 1 -8 5 -8 10 0 20 8 10 8 15 -1 21 -7 4 -9 3 -5 -4 8 -13 -10 -26 -24 -17 -8 5 -7 12 2 23 12 15 11 16 -4 3 -15 -11 -24 -10 -63 13 -25 15 -43 31 -40 36 3 5 -3 7 -14 5 -15 -3 -18 0 -14 12 4 11 2 14 -5 9 -20 -12 -35 4 -20 22 12 15 11 16 -4 4 -23 -19 -43 -6 -26 16 12 15 11 16 -4 4 -15 -12 -23 -11 -53 8 -31 19 -34 24 -23 39 12 14 11 14 -4 3 -13 -10 -22 -11 -38 -2 -21 11 -18 35 4 27 7 -3 13 1 13 9 0 12 -4 12 -24 -1 -28 -19 -50 -11 -32 11 6 8 9 14 6 14 -3 0 -8 -4 -11 -9z"/> <path d="M2373 293 c-7 -2 -13 -11 -13 -18 0 -7 -6 -15 -12 -18 -7 -2 1 -2 17 1 17 3 35 5 42 5 8 0 9 6 2 19 -10 19 -15 20 -36 11z"/> <path d="M2417 237 c3 -5 11 -6 18 -3 8 3 15 0 17 -6 4 -12 38 -21 38 -10 -1 20 -19 31 -47 29 -17 -1 -29 -6 -26 -10z"/> </g> </svg> 